<svg xmlns="http://www.w3.org/2000/svg" viewBox="0 0 85 85.15"><title>api</title><g id="Layer_2" data-name="Layer 2"><g id="Layer_11" data-name="Layer 11"><path d="M85,43.52V39.47l-5.76-.59V36l4.24-2.53-.77-3.12H78.4l-.71-2.94,3.22-2.66-1.55-3L75,22.22l-1-2.09L77,16.49l-2-2.25-5,2.55-1.71-1.71,2.8-4.34-2.51-1.8L64.53,12.4,62.86,11,64.24,6.1,62,5,58.35,8.64l-1.8-.58.71-5.18L54.59,2,51.79,6.1,49.29,5.8,49,.67,45.36.29,44.27,5.1H41.6L39.76,0,36.84.33l-.42,5.2L34,6.08,31.91,1l-3.17,1.3.84,5.47-2.38.71-2.8-4.09-2.8,1.3,1,5-1.8,1.67L16,8.94l-2.51,2.38,2.21,3.93-1.8,2.09L9.86,15.08,8,17.62l3.09,3.76L9.69,23.64,4.93,22.51,3.3,25.73l4.05,2.72L5.93,31H1.29l-.71,3.3,4.34,2-.08,3.53L0,41v3.63l5.26.17.15,3.59L1.18,50.66l1,3.51,5.05-.54,1.13,2.63L4.39,59.35,6.1,62.73l4.3-1.25,1.38,2.21L8.85,67.91l2,2.09,4.76-1.67,1.09,1.42L14.58,73.8l1.84,1.8,4.47-2.92,1.54,1.13-1.25,4.89,2.09,1.42,3.51-3.8L29,77l-.88,5.47,3,.84L33.62,79l2.09.42.17,5.6,3.17.16,1.84-5.86h2.67l1.09,5.56,3.51-.22.17-5.27,2.21-.69L53,83.61l3.09-1.12L55,77.44l2.26-1,3.09,4.39,2.8-1.42-1.42-5.47,1.67-.84,4.18,3,2.67-2.26-2.38-4.34,1.54-1.55,4.76,2.38,2.38-2.67-3-4.47L74.89,61l4.89.71,1.13-2.67L77.4,56l1-2.64h5.14l.59-3.67-4.89-1.54V44.65ZM32.27,42.39,32.4,41l.4-1.54.54-1.67,1-1.29,1.08-1.25,1.13-1,1.54-1,1.55-.42,1.67-.29L43,32.45l1.63.29,1.54.54,1.42.71L49,35l1.13,1.09L51,37.51l.84,1.55L52,40.6l-.11,1.67v1.67l-.14,1.55L51.26,47l-.9,1.38-1,1.42-1.24,1-1.37.84-1.67.55-1.54.43H42l-1.8-.14-1.54-.59-1.42-.71-1.38-1-1.17-1.13-1-1.25-.84-1.55-.44-1.5-.06-1.71v-.54" fill="#6a7662" opacity="0.7"/><circle cx="41.72" cy="42.31" r="23.14" fill="#fff"/><path d="M38.14,48.87a4,4,0,0,1,.17.65.39.39,0,0,1-.09.36.74.74,0,0,1-.45.15q-.32,0-.88,0L36,50a2.27,2.27,0,0,1-.5-.07.45.45,0,0,1-.24-.14.77.77,0,0,1-.11-.24l-1-3H28.6l-.94,2.89a.92.92,0,0,1-.12.27.49.49,0,0,1-.24.17,1.75,1.75,0,0,1-.47.09l-.79,0a7.53,7.53,0,0,1-.82,0,.63.63,0,0,1-.41-.17.45.45,0,0,1-.08-.37,3.76,3.76,0,0,1,.17-.64l4.55-13.1a1.13,1.13,0,0,1,.16-.31.56.56,0,0,1,.29-.18,2.32,2.32,0,0,1,.55-.08l.94,0,1.07,0a2.89,2.89,0,0,1,.62.08.59.59,0,0,1,.32.19,1.11,1.11,0,0,1,.17.34ZM31.36,38h0l-2.09,6.28h4.19Z" fill="#e94d25"/><path d="M50.32,39.7a5.84,5.84,0,0,1-.39,2.2,4.25,4.25,0,0,1-1.13,1.62,5,5,0,0,1-1.82,1,8.44,8.44,0,0,1-2.54.34H43.21v4.71a.32.32,0,0,1-.07.21.52.52,0,0,1-.25.15,2.38,2.38,0,0,1-.46.09A7.75,7.75,0,0,1,41,50a2.38,2.38,0,0,1-.46-.09.48.48,0,0,1-.24-.15.33.33,0,0,1-.07-.21V36.29a1.07,1.07,0,0,1,.28-.81,1,1,0,0,1,.74-.27h3.48q.52,0,1,0a10.54,10.54,0,0,1,1.14.17,5,5,0,0,1,1.34.48,4,4,0,0,1,1.16.9,3.74,3.74,0,0,1,.73,1.27A5,5,0,0,1,50.32,39.7Zm-3.14.22a2.65,2.65,0,0,0-.27-1.28,1.89,1.89,0,0,0-.67-.74,2.23,2.23,0,0,0-.84-.3,6.4,6.4,0,0,0-.91-.06H43.21v5h1.35a3.24,3.24,0,0,0,1.2-.19,2.06,2.06,0,0,0,.79-.54A2.35,2.35,0,0,0,47,41,3.35,3.35,0,0,0,47.18,39.92Z" fill="#e94d25"/><path d="M55.66,49.58a.32.32,0,0,1-.07.21.52.52,0,0,1-.25.15,2.39,2.39,0,0,1-.46.09,7.75,7.75,0,0,1-1.46,0,2.39,2.39,0,0,1-.46-.09.52.52,0,0,1-.25-.15.32.32,0,0,1-.07-.21V35.63a.32.32,0,0,1,.07-.21.53.53,0,0,1,.25-.15,2.52,2.52,0,0,1,.46-.09,6.16,6.16,0,0,1,.72,0,6.29,6.29,0,0,1,.73,0,2.39,2.39,0,0,1,.46.09.53.53,0,0,1,.25.15.32.32,0,0,1,.07.21Z" fill="#e94d25"/></g></g></svg>